<svg width="75" height="82" xmlns="http://www.w3.org/2000/svg">
    <g transform="translate(0 1)" stroke-width="2" fill="none" fill-rule="evenodd">
        <path d="M0 37.059h5.294M0 23.824h5.294M0 10.588h5.294m31.765 35.074V10.588C37.059 4.765 32.294 0 26.47 0c-5.824 0-10.589 4.765-10.589 10.588v35.074a18.491 18.491 0 00-7.94 15.22c0 10.192 8.337 18.53 18.529 18.53 10.19 0 18.53-8.338 18.53-18.53 0-6.353-3.176-11.78-7.941-15.22h0z" stroke="#C5C5C5"/>
        <circle stroke="#C5C5C5" cx="26.471" cy="60.882" r="7.941"/>
        <path d="M26.47 52.941V18.53" stroke="#C5C5C5"/>
        <path d="M49.63 35.556c0-3.595 6-9.31 6-9.31s6 5.715 6 9.31c0 3.62-3.055 5.69-6 5.69-2.946 0-6-2.07-6-5.69h0zm6 2.069c-.028 0-2.182-.026-2.182-2.07m10.353-5.778c0-2.397 4-6.207 4-6.207s4 3.81 4 6.207c0 2.414-2.036 3.793-4 3.793-1.963 0-4-1.38-4-3.793h0zm4 1.379c-.018 0-1.454-.017-1.454-1.38m-5.645 20.567c0-4.554 6.5-11.793 6.5-11.793s6.5 7.24 6.5 11.793c0 4.586-3.31 7.207-6.5 7.207s-6.5-2.621-6.5-7.207h0zm6.5 2.621c-.03 0-2.364-.033-2.364-2.621" opacity=".3" stroke="#343434"/>
    </g>
</svg>
