<svg class="gateway-icon" xmlns="http://www.w3.org/2000/svg" width="26" height="21">
    <path class="gateway-icon-path" fill="none" stroke="#428600" stroke-linecap="round" stroke-linejoin="round" stroke-miterlimit="50" d="M13.449 10c.49 0 .889.448.889 1s-.398 1-.89 1c-.49 0-.888-.448-.888-1s.398-1 .889-1zm-3.561 5c-2.37-2.21-2.37-5.79 0-8m-3.55 11c-2.37-3.59-2.37-9.41 0-13M4.556 20c-4.741-5.247-4.741-13.753 0-19M16.11 15c2.37-2.21 2.37-5.79 0-8m3.56 11c2.37-3.59 2.37-9.41 0-13m1.77 15c4.74-5.247 4.74-13.753 0-19"/>
</svg>
