<svg xmlns="http://www.w3.org/2000/svg" width="85" height="87">
    <defs>
        <clipPath id="a">
            <path fill="#fff" d="M0 16L43 0v53L0 69z"/>
        </clipPath>
        <clipPath id="b">
            <path fill="#fff" d="M11 26.563l22.629-8.393v18.435L11 44.997z"/>
        </clipPath>
        <clipPath id="c">
            <path fill="#fff" d="M85 16L42 0v53l43 16z"/>
        </clipPath>
        <clipPath id="d">
            <path fill="#fff" d="M70 23.797L54 18v39.203l7.39 2.677L70 63z"/>
        </clipPath>
    </defs>
    <path fill="none" stroke="#c5c5c5" stroke-miterlimit="50" stroke-width="2" d="M0 16v0L43 0v53L0 69v0z" clip-path="url(&quot;#a&quot;)"/>
    <path fill="none" stroke="#c5c5c5" stroke-miterlimit="50" stroke-width="4" d="M11 26.563v0l22.629-8.393v18.435L11 44.997v0z" clip-path="url(&quot;#b&quot;)"/>
    <path fill="none" stroke="#c5c5c5" stroke-linecap="square" stroke-miterlimit="50" d="M18.5 25.5v15"/>
    <path fill="none" stroke="#c5c5c5" stroke-linecap="round" stroke-miterlimit="50" stroke-width="2" d="M65.5 37.5v5.7"/>
    <path fill="none" stroke="#c5c5c5" stroke-miterlimit="50" stroke-width="2" d="M85 16v0L42 0v53l43 16v0z" clip-path="url(&quot;#c&quot;)"/>
    <path fill="none" stroke="#c5c5c5" stroke-miterlimit="50" stroke-width="4" d="M70 23.797v0L54 18v39.203l7.39 2.677v0L70 63v0z" clip-path="url(&quot;#d&quot;)"/>
    <path fill="none" stroke="#c5c5c5" stroke-miterlimit="50" d="M1 69v0l41 16.777v0L84.629 69v0"/>
</svg>
