<svg width="37" height="21" xmlns="http://www.w3.org/2000/svg">
    <g stroke="#C5C5C5" fill="none" fill-rule="evenodd">
        <path d="M34.985 10H2.015C1.455 10 1 9.539 1 8.97V2.03C1 1.461 1.455 1 2.015 1h32.97C35.545 1 36 1.461 36 2.03v6.94c0 .569-.455 1.03-1.015 1.03zm-.985.094L4 10l.084 1.486c.075 1.35.736 2.584 1.781 3.325l6.33 4.489c.644.457 1.397.7 2.167.7h9.353c.779 0 1.54-.25 2.19-.716l6.239-4.492c1.015-.732 1.662-1.929 1.754-3.245L34 10.092z" stroke-width="2"/>
        <path d="M20 6a1 1 0 11-2 0 1 1 0 012 0zM4 13.5h8m-4 3h6m19-3h-8m4 3h-6m-6-3h4m-4 3h4"/>
    </g>
</svg>
