<svg width="46" height="82" xmlns="http://www.w3.org/2000/svg">
    <g transform="translate(0 1)" stroke="#C5C5C5" stroke-width="2" fill="none" fill-rule="evenodd">
        <path d="M0 37.059h5.294M0 23.824h5.294M0 10.588h5.294m31.765 35.074V10.588C37.059 4.765 32.294 0 26.47 0c-5.824 0-10.589 4.765-10.589 10.588v35.074a18.491 18.491 0 00-7.94 15.22c0 10.192 8.337 18.53 18.529 18.53 10.19 0 18.53-8.338 18.53-18.53 0-6.353-3.176-11.78-7.941-15.22h0z"/>
        <circle cx="26.471" cy="60.882" r="7.941"/>
        <path d="M26.47 52.941V18.53"/>
    </g>
</svg>
