<svg xmlns="http://www.w3.org/2000/svg" width="44" height="82">
    <path fill="none" stroke="#c5c5c5" stroke-miterlimit="50" stroke-width="2" d="M38 38h5.294M38 25h5.294M38 12h5.294M30.058 46.662v0-35.074C30.058 5.765 25.293 1 19.469 1 13.646 1 8.881 5.765 8.881 11.588v35.074A18.491 18.491 0 00.94 61.882c0 10.192 8.338 18.53 18.53 18.53 10.19 0 18.529-8.338 18.529-18.53 0-6.353-3.177-11.78-7.941-15.22z"/>
    <path fill="none" stroke="#c5c5c5" stroke-miterlimit="50" stroke-width="2" d="M19.471 69.822a7.941 7.941 0 100-15.882 7.941 7.941 0 000 15.882zm-.001-15.88V19.53"/>
</svg>
