<svg xmlns="http://www.w3.org/2000/svg" width="82" height="84">
    <path fill="none" stroke="#c5c5c5" stroke-miterlimit="50" stroke-width="2" d="M41 81c22.091 0 40-17.909 40-40S63.091 1 41 1 1 18.909 1 41s17.909 40 40 40z"/>
    <path fill="none" stroke="#c5c5c5" stroke-miterlimit="50" d="M41.5 72C58.345 72 72 58.345 72 41.5S58.345 11 41.5 11 11 24.655 11 41.5 24.655 72 41.5 72z"/>
    <path fill="none" stroke="#c5c5c5" stroke-miterlimit="50" d="M41.5 64C53.926 64 64 53.926 64 41.5S53.926 19 41.5 19 19 29.074 19 41.5 29.074 64 41.5 64z"/>
    <path fill="#fff" d="M8 34h70v15H8z"/>
    <path fill="#fff" d="M30 7h22v69H30z"/>
    <path fill="#c5c5c5" d="M44.743 41.563c0 1.658.383 2.915 1.15 3.771.767.856 1.74 1.284 2.921 1.284 1.18 0 2.15-.425 2.906-1.274.757-.85 1.135-2.123 1.135-3.821 0-1.679-.368-2.93-1.105-3.757-.737-.825-1.716-1.238-2.936-1.238s-2.204.418-2.95 1.253c-.748.836-1.121 2.097-1.121 3.782zm-3.047.1c0-1.492.223-2.744.669-3.757a6.894 6.894 0 011.363-2.008c.575-.593 1.206-1.032 1.891-1.319.912-.386 1.964-.579 3.155-.579 2.157 0 3.882.67 5.177 2.008 1.294 1.339 1.941 3.2 1.941 5.585 0 2.364-.642 4.214-1.926 5.55-1.285 1.335-3.002 2.003-5.152 2.003-2.176 0-3.907-.665-5.191-1.994-1.285-1.328-1.927-3.158-1.927-5.49zM36.89 43.51l2.867.909c-.44 1.599-1.17 2.786-2.193 3.562-1.022.776-2.32 1.164-3.891 1.164-1.945 0-3.544-.665-4.796-1.994C27.626 45.824 27 44.007 27 41.702c0-2.437.63-4.33 1.888-5.679C30.147 34.674 31.802 34 33.853 34c1.792 0 3.247.53 4.366 1.588.666.627 1.166 1.526 1.499 2.698l-2.927.7c-.174-.76-.535-1.36-1.084-1.799-.55-.44-1.217-.66-2.003-.66-1.086 0-1.967.39-2.643 1.17-.676.779-1.014 2.04-1.014 3.786 0 1.851.333 3.17 1 3.956.665.786 1.531 1.179 2.597 1.179.786 0 1.462-.25 2.028-.75.566-.499.972-1.285 1.219-2.357zM70.5 46a4.5 4.5 0 100-9 4.5 4.5 0 000 9z"/>
    <path fill="#428600" d="M68.25 84c6.627 0 12-5.373 12-12s-5.373-12-12-12-12 5.373-12 12 5.373 12 12 12z"/>
    <path fill="#fff" d="M62.806 70.908l3.388 3.387 7.63-7.63 1.142 1.143-8.526 8.525-.246-.247-.247.247-4.283-4.283z"/>
</svg>
