<svg width="46" height="43" xmlns="http://www.w3.org/2000/svg">
    <g fill="none" fill-rule="evenodd">
        <g transform="translate(2 10)" stroke="#C5C5C5">
            <rect stroke-width="2" x="5" y="1" width="32" height="21" rx="1"/>
            <rect x="8.5" y="4.5" width="3" height="14" rx="1.5"/>
            <rect x="13.5" y="4.5" width="3" height="14" rx="1.5"/>
            <rect x="19.5" y="4.5" width="3" height="14" rx="1.5"/>
            <rect x="25.5" y="4.5" width="3" height="14" rx="1.5"/>
            <rect x="30.5" y="4.5" width="3" height="14" rx="1.5"/>
            <path d="M37.5 18.5h5v2h-5z"/>
            <path d="M39.2 17h1.6m-.8.167v.5" stroke-linecap="square"/>
            <path d="M0 0v3.018A2.982 2.982 0 002.982 6H4V3.717H2.083V0H0z"/>
        </g>
        <path d="M8 4L0 8V0z"/>
        <path fill="#C5C5C5" d="M46 39l-8 4v-8z"/>
    </g>
</svg>
