<svg width="28" height="31" xmlns="http://www.w3.org/2000/svg">
    <g fill="none" fill-rule="evenodd">
        <g transform="translate(1 8)" stroke="#C5C5C5">
            <rect x="3.5" y=".5" width="18" height="15" rx="1"/>
            <rect x="5.5" y="3.5" width="2" height="9" rx="1"/>
            <rect x="9.5" y="3.5" width="2" height="9" rx="1"/>
            <rect x="13.5" y="3.5" width="2" height="9" rx="1"/>
            <rect x="17.5" y="3.5" width="2" height="9" rx="1"/>
            <path d="M22.5 13.5h3v1h-3z"/>
            <path d="M23.1 11.16h1.4m-.369 1.007v.5" stroke-linecap="square"/>
            <path d="M0 0v1.763A2.237 2.237 0 002.237 4H3V2.478H1.563V0H0z" fill="#C5C5C5"/>
        </g>
        <path d="M6 3L0 6V0z"/>
        <path fill="#C5C5C5" d="M28 28l-6 3v-6z"/>
    </g>
</svg>
