<svg width="24" height="23" xmlns="http://www.w3.org/2000/svg">
    <g stroke="#C5C5C5" stroke-width="1.5" fill="none" fill-rule="evenodd">
        <path d="M15.082 14h.956v-1.372H23V7.442h-6.962V6H14v3.954m1.607 7.601c1.122 1.964-.287 4.466-2.569 4.445C11.23 21.983 10 20.322 10 18.53c0-1.803 4.017-6.53 4.017-6.53s-.447 1.99 1.59 5.555z"/>
        <path d="M16 11l1.237-.862 1.16.744 1.038-.748 1.18.754L22 10m-8 8a1 1 0 011 1M11.227 6.799c0-.552-.469-1.003-1.042-1.003h-.957V3.083h1.507c.27.288.673.455 1.105.41.714-.074 1.23-.691 1.152-1.377-.077-.687-.717-1.183-1.431-1.109a1.303 1.303 0 00-.898.495H6.161a1.316 1.316 0 00-1.175-.495c-.714.074-1.23.691-1.153 1.377.077.687.719 1.183 1.432 1.109.331-.034.616-.189.823-.41h1.607v2.713h-.734c-.573 0-1.042.451-1.042 1.003v1.133h-.19v-.01h-.793c-1.482 0-2.682 1.154-2.682 2.579v2.917H1V15h5.883v-1.582H5.73v-2.046h7.253v-3.44h-1.755V6.8z"/>
    </g>
</svg>
