<svg width="26" height="15" xmlns="http://www.w3.org/2000/svg">
    <g stroke="#C5C5C5" fill="none" fill-rule="evenodd">
        <path d="M24.304 7.158H1.696A.7.7 0 011 6.453V1.705A.7.7 0 011.696 1h22.608a.7.7 0 01.696.705v4.748a.7.7 0 01-.696.705zm-.675.064L3.057 7.158l.057 1.016c.052.925.505 1.769 1.222 2.276l4.34 3.071c.442.313.958.479 1.486.479h6.414c.534 0 1.056-.17 1.501-.49l4.279-3.074c.696-.5 1.14-1.32 1.203-2.22l.07-.994z" stroke-width="2"/>
        <path d="M14.029 4.421a.685.685 0 11-1.37-.001.685.685 0 011.37.001zM3.057 9.553h5.486M5.8 11.605h4.114m13.029-2.052h-5.486m2.743 2.052h-4.114m-4.115-2.052h2.743m-2.743 2.052h2.743"/>
    </g>
</svg>
