<svg xmlns="http://www.w3.org/2000/svg" width="17" height="11">
    <defs>
        <clipPath id="a">
            <path d="M0 0h16.588v11H0z"/>
        </clipPath>
    </defs>
    <g clip-path="url(#a)">
        <path fill="#e60000" d="M8.294 0A9.003 9.003 0 000 5.5 9.003 9.003 0 008.294 11a8.94 8.94 0 003.725-.818l-1.777-1.777A3.477 3.477 0 018.294 9c-1.93 0-3.5-1.57-3.5-3.5S6.364 2 8.294 2s3.5 1.57 3.5 3.5a3.46 3.46 0 01-.82 2.223l1.963 1.963A9.02 9.02 0 0016.588 5.5 9.003 9.003 0 008.294 0"/>
    </g>
    <path fill="#e60000" d="M8.29 3a2.503 2.503 0 00-2.5 2.5c0 1.378 1.122 2.5 2.5 2.5s2.5-1.122 2.5-2.5S9.668 3 8.29 3"/>
</svg>
