<svg xmlns="http://www.w3.org/2000/svg" width="20" height="10pt" viewBox="0 0 15 10">
    <path d="M23 13.995c1.1 0 2 .903 2 2.005a2.01 2.01 0 01-2 2.005c-1.1 0-2-.903-2-2.005 0-1.102.9-2.005 2-2.005zm-6 10c-4-3.865-4-10.133 0-13.998m-6 18.009C5.662 21.923 5.662 12.082 11 6M6 32.004C-2 23.159-2 8.84 6-.004m23 23.999c4-3.865 4-10.133 0-13.998m6 18.009C40.337 21.923 40.337 12.082 35 6m5 26.004c8-8.845 8-23.163 0-32.008" transform="matrix(.3125 0 0 .29412 .313 .294)" class="icon-stroke" fill="none" stroke-width="2" stroke-linecap="round" stroke-linejoin="round" stroke="#fff"/>
</svg>
