<svg width="32" height="13" xmlns="http://www.w3.org/2000/svg">
    <g fill="#C5C5C5" fill-rule="evenodd">
        <path d="M3 5c-.55 0-1 .45-1 1v6c0 .55.45 1 1 1s1-.45 1-1V6c0-.55-.45-1-1-1"/>
        <path d="M4 5.5C4 6.328 3.104 7 2 7s-2-.672-2-1.5S.896 4 2 4s2 .672 2 1.5M29 5c.55 0 1 .45 1 1v6c0 .55-.45 1-1 1s-1-.45-1-1V6c0-.55.45-1 1-1"/>
        <path d="M28 5.5c0 .828.896 1.5 2 1.5s2-.672 2-1.5S31.104 4 30 4s-2 .672-2 1.5M6.665 0h18.67C26.255 0 27 .746 27 1.666V6H5V1.666C5 .746 5.745 0 6.665 0M26.25 8.5H5.75A.752.752 0 015 7.75c0-.412.337-.75.75-.75h20.5c.413 0 .75.338.75.75s-.337.75-.75.75m0 2.25H5.75A.752.752 0 015 10c0-.412.337-.75.75-.75h20.5c.413 0 .75.338.75.75s-.337.75-.75.75m0 2.25H5.75a.752.752 0 01-.75-.75c0-.412.337-.75.75-.75h20.5c.413 0 .75.338.75.75s-.337.75-.75.75"/>
    </g>
</svg>
