<svg width="50" height="84" xmlns="http://www.w3.org/2000/svg">
    <g stroke="#C5C5C5" stroke-width="2" fill="none" fill-rule="evenodd">
        <path d="M8 74.5h33m-33 4h33M8.385 82.27h32.728" stroke-linecap="round"/>
        <path d="M32.26 2S11.358 12.02 4.04 31.919C2.008 37.44-.335 44.092 1.922 51.622 5.457 63.41 18.029 69.885 19.56 68.405c.923-.892-2.54-4.314-4.939-13.135-1.314-4.832-2.51-9.227-1.41-14.594.938-4.587 3.08-7.581 7.054-13.135 1.827-2.555 5.644-5.838 5.644-5.838s-5.997 17.148 2.117 24.08c.464.398 1.35-1.94 2.822-5.837 1.312-3.474 2.116-5.108 2.116-5.108s-.295 3.234.705 7.297c.932 3.785 2.368 4.089 3.528 8.027.323 1.098 1.17 4.333.706 8.027-.794 6.3-4.855 9.579-4.234 10.216.702.72 6.637-2.66 10.583-8.756 1.009-1.558 4.463-7.054 4.233-14.595-.218-7.171-3.658-12.563-6.35-16.784-2.367-3.711-3.754-4.676-6.348-9.486-2.846-5.275-3.355-8.153-3.528-9.487-.62-4.773 0-7.297 0-7.297z"/>
    </g>
</svg>
