<svg xmlns="http://www.w3.org/2000/svg" width="72" height="81">
    <defs>
        <linearGradient id="a" x1="51.9" x2="23.12" y1="19.63" y2="19.63" gradientUnits="userSpaceOnUse">
            <stop offset="0" stop-color="#355cff"/>
            <stop offset="1" stop-color="#ff026f"/>
        </linearGradient>
        <clipPath id="b">
            <path fill="#fff" d="M24 70a5 5 0 015-5h15a5 5 0 015 5v6a5 5 0 01-5 5H29a5 5 0 01-5-5z"/>
        </clipPath>
    </defs>
    <path fill="url(#a)" d="M72.043 66.031l-.012.001V9.245c0-4.78-3.657-8.725-8.328-9.197V0h-.944v.048c-4.67.472-8.328 4.417-8.328 9.197V47.06h.057v2.17c0 2.74-2.114 4.996-4.8 5.235-2.687-.239-4.801-2.495-4.801-5.235V9.491c0-4.779-3.656-8.723-8.327-9.196V.248h-.944v.047c-4.672.473-8.329 4.417-8.329 9.196v31.985h-.056v7.507c0 2.739-2.113 4.996-4.8 5.235-2.686-.239-4.8-2.496-4.8-5.235V9.245c0-4.78-3.657-8.725-8.328-9.197V0h-.944v.048C3.688.52.031 4.465.031 9.245v56.782L0 66.023v.945h.031V67h.022c.487 4.656 4.423 8.295 9.191 8.295H34.98v-4H9.244c-2.699 0-4.919-2.054-5.213-4.683V9.245c0-2.74 2.114-4.997 4.8-5.235 2.688.238 4.8 2.495 4.8 5.235v39.738c0 4.779 3.657 8.723 8.328 9.196v.047h.943v-.047c4.672-.473 8.329-4.417 8.329-9.196v-7.507h.056V9.491c0-2.739 2.113-4.996 4.8-5.235 2.687.239 4.8 2.496 4.8 5.235V49.23c0 4.78 3.658 8.723 8.329 9.197v.047h.943v-.047c4.671-.474 8.328-4.417 8.328-9.197V19.79h-.056V9.245c0-2.74 2.113-4.997 4.8-5.235 2.687.238 4.8 2.495 4.8 5.235v57.27c-.244 2.681-2.497 4.788-5.232 4.788H37.063v4h25.736c4.771 0 8.709-3.644 9.192-8.303h.04v-.025h.012z"/>
    <path fill="#fff" d="M24 70a5 5 0 015-5h15a5 5 0 015 5v6a5 5 0 01-5 5H29a5 5 0 01-5-5z"/>
    <path fill="none" stroke="#c5c5c5" stroke-miterlimit="50" stroke-width="4" d="M24 70a5 5 0 015-5h15a5 5 0 015 5v6a5 5 0 01-5 5H29a5 5 0 01-5-5z" clip-path="url(&quot;#b&quot;)"/>
</svg>
