<svg width="68" height="82" xmlns="http://www.w3.org/2000/svg">
    <g transform="translate(0 1)" stroke="#C5C5C5" stroke-width="2" fill="none" fill-rule="evenodd">
        <path d="M8 37h5.294M8 24h5.294M54 24h5.294M.51 11h12.784M54.51 37h12.784M54 37h13M54 11h5.294M45.059 45.662V10.588C45.059 4.765 40.294 0 34.47 0c-5.824 0-10.589 4.765-10.589 10.588v35.074a18.491 18.491 0 00-7.94 15.22c0 10.192 8.337 18.53 18.529 18.53 10.19 0 18.53-8.338 18.53-18.53 0-6.353-3.176-11.78-7.941-15.22h0z"/>
        <circle cx="34.471" cy="60.882" r="7.941"/>
        <path d="M34.47 52.941V18.53"/>
    </g>
</svg>
