<svg width="33" height="31" xmlns="http://www.w3.org/2000/svg">
    <g stroke="#C5C5C5" stroke-width="1.5" fill="none" fill-rule="evenodd">
        <path d="M20.563 19h1.38v-1.887H32v-7.13H21.943V8H19v5.436m2.475 10.341c1.497 2.75-.382 6.253-3.424 6.223C15.64 29.976 14 27.65 14 25.142 14 22.617 19.356 16 19.356 16s-.596 2.786 2.12 7.777z"/>
        <path d="M22 15l1.65-1.725 1.546 1.49 1.384-1.497 1.574 1.508L30 13M19 25a1 1 0 011 1M15.489 9.284c0-.788-.665-1.432-1.477-1.432h-1.356V3.976h2.136c.382.412.953.65 1.565.585 1.01-.106 1.741-.987 1.632-1.967-.109-.98-1.017-1.69-2.028-1.584a1.843 1.843 0 00-1.271.707H8.31a1.857 1.857 0 00-1.663-.707c-1.011.106-1.742.987-1.633 1.968.11.98 1.017 1.689 2.028 1.583.47-.049.873-.27 1.166-.585h2.277v3.876h-1.04c-.813 0-1.477.644-1.477 1.432v1.62H7.7v-.017H6.576c-2.099 0-3.8 1.65-3.8 3.686v4.167H1V21h8.335v-2.26H7.699v-2.922h10.276v-4.915h-2.486v-1.62z"/>
    </g>
</svg>
