<svg width="72" height="66" xmlns="http://www.w3.org/2000/svg">
    <g stroke="#C5C5C5" stroke-width="2" fill="none" fill-rule="evenodd">
        <path d="M44.53 40.893h3.092v-4.054h22.532v-15.32H47.622v-4.258h-6.595V28.94m5.446 22.623c3.339 5.909-.854 13.438-7.642 13.374-5.381-.052-9.041-5.05-9.041-10.442 0-5.425 11.954-19.648 11.954-19.648s-1.332 5.989 4.729 16.716z"/>
        <path d="M46.494 32.007l3.426-4.71 3.212 4.068 2.875-4.087 3.27 4.116 3.834-4.849M40.587 52.8a3.261 3.261 0 013.261 3.261M32.63 19.646a3.233 3.233 0 00-3.223-3.223h-2.96V7.699h4.662a4.005 4.005 0 003.416 1.317 4.02 4.02 0 10-.864-7.992 3.995 3.995 0 00-2.775 1.59H16.96a4.001 4.001 0 00-3.633-1.59 4.02 4.02 0 10.864 7.992 3.983 3.983 0 002.544-1.317h4.972v8.724h-2.272a3.233 3.233 0 00-3.223 3.223v3.646h-.587v-.036h-2.453a8.295 8.295 0 00-8.295 8.295v9.38H1v5.087h18.195V40.93h-3.57v-6.578h22.433v-11.06H32.63v-3.646z"/>
    </g>
</svg>
