<svg width="36" height="31" xmlns="http://www.w3.org/2000/svg">
    <g stroke="#C5C5C5" stroke-width="2" fill="none" fill-rule="evenodd">
        <path d="M13.142 1.125a3.2 3.2 0 012.183 3.956 3.185 3.185 0 01-3.942 2.191A3.2 3.2 0 019.2 3.316a3.185 3.185 0 013.943-2.191z"/>
        <path d="M23.246 24.413c-3.42.865-4.454-2.128-5.083-4.904a3.348 3.348 0 00-.062-.778 144.15 144.15 0 00-1.516-6.772c2.385-.07 4.2 1.13 5.139 3.76.763 2.14 4.244 1.288 3.472-.876-1.818-5.09-6.048-7.43-11.36-6.049a1.93 1.93 0 00-.572.25 3.552 3.552 0 00-.23.03 1.89 1.89 0 00-.63.059C9.1 9.991 6.57 8.929 5.4 5.651c-.765-2.14-4.244-1.288-3.471.877 1.493 4.182 4.618 6.502 8.633 6.432a139.662 139.662 0 011.574 6.953c-1.79.348-3.52.921-5.2 1.698a2.029 2.029 0 00-.202.11 1.73 1.73 0 00-.956.564l-4.316 4.782c-1.546 1.713 1.157 4.043 2.696 2.338l4.103-4.544c.135-.032.273-.076.411-.141 1.948-.902 4.048-1.485 6.198-1.604.106-.005.205-.02.301-.04 1.521 3.694 4.38 6.304 9.048 5.124 2.46-.62 1.494-4.41-.973-3.787z"/>
        <path d="M27.775 18.485c1.7-1.766 1.7-4.63 0-6.397m2.125 8.956c2.833-2.944 2.833-7.717 0-10.662m1.7 12.368c4.533-4.122 4.533-10.805 0-14.926" stroke-linecap="round" stroke-linejoin="round"/>
    </g>
</svg>
