<svg width="82" height="70" xmlns="http://www.w3.org/2000/svg">
    <g stroke="#C5C5C5" stroke-width="2" fill="none" fill-rule="evenodd">
        <path d="M29.569 1.293a7.498 7.498 0 11-4.138 14.414A7.498 7.498 0 0129.57 1.293z"/>
        <path d="M53.344 55.899c-8.047 2.028-10.482-4.99-11.96-11.5a7.825 7.825 0 00-.146-1.822 337.007 337.007 0 00-3.567-15.88c5.61-.163 9.88 2.651 12.09 8.817 1.798 5.016 9.987 3.02 8.17-2.056C53.653 21.525 43.7 16.04 31.2 19.276a4.467 4.467 0 00-1.345.587c-.18.017-.361.04-.54.07a4.463 4.463 0 00-1.484.138c-7.77 2.011-13.725-.478-16.479-8.165-1.8-5.017-9.987-3.02-8.168 2.056C6.7 23.769 14.052 29.209 23.5 29.044c1.38 5.399 2.6 10.84 3.704 16.305-4.212.814-8.283 2.159-12.235 3.98-.17.08-.327.167-.477.257-.79.154-1.568.572-2.25 1.323-3.384 3.74-6.77 7.476-10.155 11.214-3.636 4.015 2.724 9.479 6.344 5.483 3.217-3.552 6.438-7.107 9.655-10.656a4.98 4.98 0 00.968-.332c4.582-2.115 9.524-3.48 14.583-3.759.25-.013.483-.048.708-.096 3.579 8.662 10.304 14.782 21.29 12.017 5.787-1.456 3.515-10.343-2.29-8.881z"/>
        <path d="M64 42c4-4.142 4-10.858 0-15m5 21c6.667-6.903 6.667-18.096 0-25m4 29c10.667-9.665 10.667-25.335 0-35" stroke-linecap="round" stroke-linejoin="round"/>
    </g>
</svg>
