<svg width="77" height="42" xmlns="http://www.w3.org/2000/svg">
    <g stroke="#C5C5C5" stroke-width="2" fill="none" fill-rule="evenodd">
        <path d="M73.825 20H3.175A2.175 2.175 0 011 17.824V3.175C1 1.975 1.974 1 3.175 1h70.65C75.026 1 76 1.974 76 3.175v14.65A2.175 2.175 0 0173.825 20zM71 20.211l-65-.187.18 2.971a8.57 8.57 0 003.86 6.652l13.716 8.977a8.563 8.563 0 004.694 1.4h20.265a8.58 8.58 0 004.744-1.432l13.519-8.985a8.574 8.574 0 003.802-6.49l.22-2.906z"/>
        <path d="M40.848 10.917a2.348 2.348 0 11-4.695 0 2.348 2.348 0 014.695 0zM8.92 27.548h16.732m-8.022 5.674h11.544m39.356-5.826H51.796m8.023 5.674H48.276m-14.211-5.914h9m-9 6.066h9"/>
    </g>
</svg>
