<svg xmlns="http://www.w3.org/2000/svg" width="103" height="92">
    <defs>
        <clipPath id="a">
            <path fill="#fff" d="M24 16a4 4 0 014-4h58a4 4 0 014 4v72a4 4 0 01-4 4H28a4 4 0 01-4-4z"/>
        </clipPath>
        <clipPath id="b">
            <path fill="#fff" d="M0 45a4 4 0 014-4h30a4 4 0 014 4v13a4 4 0 01-4 4H4a4 4 0 01-4-4z"/>
        </clipPath>
        <clipPath id="c">
            <path fill="#fff" d="M54 70h6v10h-6z"/>
        </clipPath>
    </defs>
    <path fill="none" stroke="#c5c5c5" stroke-miterlimit="50" stroke-width="2" d="M58.727 33v0-3.942 0V26a2 2 0 00-2-2h-4.71v0H25v3.425h29.04V33z"/>
    <path fill="none" stroke="#c5c5c5" stroke-miterlimit="50" stroke-width="2" d="M24 16a4 4 0 014-4h58a4 4 0 014 4v72a4 4 0 01-4 4H28a4 4 0 01-4-4z" clip-path="url(&quot;#a&quot;)"/>
    <path fill="#fff" d="M88.95 2.95h-7a2 2 0 00-2 2v79.107h3.425V7.637h5.575z"/>
    <path fill="none" stroke="#c5c5c5" stroke-miterlimit="50" stroke-width="2" d="M88.95 2.95h-7a2 2 0 00-2 2v4.71h0v74.397h3.425V7.637h5.575z"/>
    <path fill="#c5c5c5" d="M19 25.5L8 31V20zm84-20L92 11V0z"/>
    <path fill="none" stroke="#c5c5c5" stroke-miterlimit="50" stroke-width="2" d="M57 71c10.493 0 19-8.507 19-19s-8.507-19-19-19-19 8.507-19 19 8.507 19 19 19z"/>
    <path fill="#fff" d="M0 45a4 4 0 014-4h30a4 4 0 014 4v13a4 4 0 01-4 4H4a4 4 0 01-4-4z"/>
    <path fill="none" stroke="#c5c5c5" stroke-miterlimit="50" stroke-width="4" d="M0 45a4 4 0 014-4h30a4 4 0 014 4v13a4 4 0 01-4 4H4a4 4 0 01-4-4z" clip-path="url(&quot;#b&quot;)"/>
    <path fill="none" stroke="#c5c5c5" stroke-linecap="square" stroke-miterlimit="50" d="M27 45.5H4m23 3H4m23 3H4m23 3H4m23 3H4m26 3.414V42.5"/>
    <path fill="none" stroke="#c5c5c5" stroke-miterlimit="50" stroke-width="2" d="M58.813 36c-5.626 7.026 0 13.456 0 13.456m-2.5 18c5.626-7.026 0-13.456 0-13.456m3.611-.247c7.026-5.626 13.456 0 13.456 0m-31.836-2.44c7.026 5.626 13.456 0 13.456 0"/>
    <path fill="#fff" d="M57 56a4 4 0 100-8 4 4 0 000 8z"/>
    <path fill="none" stroke="#c5c5c5" stroke-miterlimit="50" d="M57 56a4 4 0 100-8 4 4 0 000 8z"/>
    <path fill="none" stroke="#c5c5c5" stroke-miterlimit="50" stroke-width="4" d="M54 70v0h6v10h-6v0z" clip-path="url(&quot;#c&quot;)"/>
    <path fill="none" stroke="#c5c5c5" stroke-miterlimit="50" stroke-width="2" d="M73.5 73.722c8.877 4 17 0 17 0m-34 0c8.877 4 17 0 17 0m-32 0c8.877 4 17 0 17 0m-33 0c8.877 4 17 0 17 0"/>
</svg>
