<svg xmlns="http://www.w3.org/2000/svg" width="316" height="92" viewBox="0 0 316 92"><defs><clipPath id="9xyza"><path fill="#fff" d="M142 28h174v64H142z"/></clipPath><clipPath id="9xyzb"><path fill="#fff" d="M241 57h27v35h-27z"/></clipPath><clipPath id="9xyzc"><path fill="#fff" d="M254 57h14v35h-14z"/></clipPath><clipPath id="9xyzd"><path fill="#fff" d="M238 53h33v39h-33z"/></clipPath><clipPath id="9xyze"><path fill="#fff" d="M262 0l46.926 29.236H262z"/></clipPath><clipPath id="9xyzf"><path fill="#fff" d="M149 10h11v19h-11z"/></clipPath><clipPath id="9xyzg"><path fill="#fff" d="M0 38h23v29H0z"/></clipPath><clipPath id="9xyzh"><path fill="#fff" d="M44 38h23v29H44z"/></clipPath><clipPath id="9xyzi"><path fill="#fff" d="M22 38h23v29H22z"/></clipPath><clipPath id="9xyzj"><path fill="#fff" d="M66 38h23v29H66z"/></clipPath><clipPath id="9xyzk"><path fill="#fff" d="M0 47h23v29H0z"/></clipPath><clipPath id="9xyzl"><path fill="#fff" d="M44 47h23v29H44z"/></clipPath><clipPath id="9xyzm"><path fill="#fff" d="M22 47h23v29H22z"/></clipPath><clipPath id="9xyzn"><path fill="#fff" d="M66 47h23v29H66z"/></clipPath><clipPath id="9xyzo"><path fill="#fff" d="M0 56h23v29H0z"/></clipPath><clipPath id="9xyzp"><path fill="#fff" d="M44 56h23v29H44z"/></clipPath><clipPath id="9xyzq"><path fill="#fff" d="M22 56h23v29H22z"/></clipPath><clipPath id="9xyzr"><path fill="#fff" d="M15 84h8v8h-8z"/></clipPath><clipPath id="9xyzs"><path fill="#fff" d="M66 84h8v8h-8z"/></clipPath><clipPath id="9xyzt"><path fill="#fff" d="M66 56h23v29H66z"/></clipPath></defs><g><g><g><path fill="none" stroke="#c5c5c5" stroke-miterlimit="50" stroke-width="2" d="M142 28v0h174v64H142v0z" clip-path="url(&quot;#9xyza&quot;)"/></g><g><g><path fill="none" stroke="#c5c5c5" stroke-miterlimit="50" stroke-width="2" d="M241 57v0h27v35h-27v0z" clip-path="url(&quot;#9xyzb&quot;)"/></g><g><path fill="none" stroke="#c5c5c5" stroke-miterlimit="50" stroke-width="2" d="M254 57v0h14v35h-14v0z" clip-path="url(&quot;#9xyzc&quot;)"/></g><g><path fill="none" stroke="#c5c5c5" stroke-miterlimit="50" stroke-width="2" d="M238 53v0h33v39h-33v0z" clip-path="url(&quot;#9xyzd&quot;)"/></g></g><g><path fill="none" stroke="#c5c5c5" stroke-miterlimit="50" stroke-width="2" d="M262 0v0l46.926 29.236v0H262v0z" clip-path="url(&quot;#9xyze&quot;)"/></g><g><path fill="none" stroke="#c5c5c5" stroke-miterlimit="50" stroke-width="2" d="M149 10v0h11v19h-11v0z" clip-path="url(&quot;#9xyzf&quot;)"/></g></g><g><g><g><path fill="none" stroke="#c5c5c5" stroke-miterlimit="50" stroke-width="2" d="M0 38v0h23v29H0v0z" clip-path="url(&quot;#9xyzg&quot;)"/></g><g><path fill="none" stroke="#c5c5c5" stroke-miterlimit="50" stroke-width="2" d="M44 38v0h23v29H44v0z" clip-path="url(&quot;#9xyzh&quot;)"/></g><g><path fill="none" stroke="#c5c5c5" stroke-miterlimit="50" stroke-width="2" d="M22 38v0h23v29H22v0z" clip-path="url(&quot;#9xyzi&quot;)"/></g><g><path fill="none" stroke="#c5c5c5" stroke-miterlimit="50" stroke-width="2" d="M66 38v0h23v29H66v0z" clip-path="url(&quot;#9xyzj&quot;)"/></g><g><path fill="none" stroke="#c5c5c5" stroke-miterlimit="50" stroke-width="2" d="M0 47v0h23v29H0v0z" clip-path="url(&quot;#9xyzk&quot;)"/></g><g><path fill="none" stroke="#c5c5c5" stroke-miterlimit="50" stroke-width="2" d="M44 47v0h23v29H44v0z" clip-path="url(&quot;#9xyzl&quot;)"/></g><g><path fill="none" stroke="#c5c5c5" stroke-miterlimit="50" stroke-width="2" d="M22 47v0h23v29H22v0z" clip-path="url(&quot;#9xyzm&quot;)"/></g><g><path fill="none" stroke="#c5c5c5" stroke-miterlimit="50" stroke-width="2" d="M66 47v0h23v29H66v0z" clip-path="url(&quot;#9xyzn&quot;)"/></g><g><path fill="none" stroke="#c5c5c5" stroke-miterlimit="50" stroke-width="2" d="M0 56v0h23v29H0v0z" clip-path="url(&quot;#9xyzo&quot;)"/></g><g><path fill="none" stroke="#c5c5c5" stroke-miterlimit="50" stroke-width="2" d="M44 56v0h23v29H44v0z" clip-path="url(&quot;#9xyzp&quot;)"/></g><g><path fill="none" stroke="#c5c5c5" stroke-miterlimit="50" stroke-width="2" d="M22 56v0h23v29H22v0z" clip-path="url(&quot;#9xyzq&quot;)"/></g><g><path fill="none" stroke="#c5c5c5" stroke-miterlimit="50" stroke-width="2" d="M15 84v0h8v8h-8v0z" clip-path="url(&quot;#9xyzr&quot;)"/></g><g><path fill="none" stroke="#c5c5c5" stroke-miterlimit="50" stroke-width="2" d="M66 84v0h8v8h-8v0z" clip-path="url(&quot;#9xyzs&quot;)"/></g><g><path fill="none" stroke="#c5c5c5" stroke-miterlimit="50" stroke-width="2" d="M66 56v0h23v29H66v0z" clip-path="url(&quot;#9xyzt&quot;)"/></g></g></g></g></svg>