<svg width="67" height="79" xmlns="http://www.w3.org/2000/svg" xmlns:xlink="http://www.w3.org/1999/xlink">
    <defs>
        <path id="a" d="M0 78.496h66V0H0z"/>
    </defs>
    <g transform="translate(1)" fill="none" fill-rule="evenodd">
        <path d="M58.963 77.996H7.037C3.442 77.996.5 75.056.5 71.46V7.037C.5 3.441 3.442.5 7.037.5h51.926C62.559.5 65.5 3.441 65.5 7.037V71.46c0 3.596-2.941 6.537-6.537 6.537z" stroke="#C5C5C5"/>
        <path d="M46.383 41.492H19.617A3.502 3.502 0 0116.125 38a3.502 3.502 0 013.492-3.492h26.766A3.502 3.502 0 0149.875 38a3.502 3.502 0 01-3.492 3.492zM18.638 38h28.723" stroke="#C5C5C5"/>
        <path fill="#C5C5C5" d="M44.237 52.47l-2.975 2.977v-5.951z"/>
        <path d="M43.263 52.496h-21.5m34.807-7.5H9.43a3.085 3.085 0 01-3.076-3.076V8.75A3.085 3.085 0 019.43 5.672h47.14a3.086 3.086 0 013.076 3.076V41.92a3.086 3.086 0 01-3.077 3.076z" stroke="#C5C5C5"/>
        <mask id="b" fill="#fff">
            <use xlink:href="#a"/>
        </mask>
        <path stroke="#C5C5C5" mask="url(#b)" d="M16.5 26.996h5v-7h-5zm7 0h5v-7h-5zm7 0h5v-7h-5zm7 0h5v-7h-5zm7 0h5v-7h-5zm-18-16h13m-19.5 3h26"/>
        <path fill="#C5C5C5" mask="url(#b)" d="M34.335 64.145h2.434l-.758.959-3.43 4.466-.438.517-.917 1.156 1.514-5.263h-3.508l1.433-1.835.44-.597.439-.56 1.156-1.474 2.074-2.632-1.354 4.745-.161.518z"/>
    </g>
</svg>
